<?xml version="1.0" encoding="utf-8"?>
<!-- Generator: Adobe Illustrator 21.0.0, SVG Export Plug-In . SVG Version: 6.00 Build 0)  -->
<svg version="1.1"
	 id="svg1" xmlns:cc="http://creativecommons.org/ns#" xmlns:dc="http://purl.org/dc/elements/1.1/" xmlns:rdf="http://www.w3.org/1999/02/22-rdf-syntax-ns#" xmlns:svg="http://www.w3.org/2000/svg"
	 xmlns="http://www.w3.org/2000/svg" xmlns:xlink="http://www.w3.org/1999/xlink" x="0px" y="0px" viewBox="0 0 182.5 99.2"
	 style="enable-background:new 0 0 182.5 99.2;" xml:space="preserve">
<style type="text/css">
	.st0{fill:#00CAC9;stroke:#00CAC9;stroke-width:5.2858;}
	.st1{fill:#00CAC9;stroke:#00CAC9;}
	.st2{fill-opacity:0.75;stroke:#00CAC9;}
	.st3{fill:#00CAC9;fill-opacity:0.75;stroke:#00CAC9;stroke-width:1.252;}
</style>
<g id="g846" transform="translate(-86.61 -337.35)">
	<path id="path838" class="st0" d="M89.3,344.8v89.1"/>
	<path id="path839" class="st1" d="M89.3,345.5l177.1,0.7"/>
	<path id="path840" class="st1" d="M90.7,367.5l177.1,0.7"/>
	<path id="path842" class="st1" d="M91.4,389.3l177.1,0.7"/>
	<path id="path844" class="st1" d="M89.6,411.5l177.1,0.7"/>
	<path id="path845" class="st1" d="M90.3,433.3l177.1,0.7"/>
</g>
<g id="g869" transform="translate(-81.87 -338.2)">
	<g id="g858" transform="translate(12.215)">
		<path id="path855" class="st2" d="M156.2,357.9c0.1,2.4-1.8,4.4-4.2,4.4c-2.4,0.1-4.4-1.8-4.4-4.2c0-0.1,0-0.1,0-0.2
			c-0.1-2.4,1.8-4.4,4.2-4.4c2.4-0.1,4.4,1.8,4.4,4.2C156.3,357.7,156.3,357.8,156.2,357.9z"/>
		<path id="path857" class="st2" d="M155.2,379.3c0.1,2.4-1.8,4.4-4.2,4.4c-2.4,0.1-4.4-1.8-4.4-4.2c0-0.1,0-0.1,0-0.2
			c-0.1-2.4,1.8-4.4,4.2-4.4c2.4-0.1,4.4,1.8,4.4,4.2C155.2,379.1,155.2,379.2,155.2,379.3z"/>
	</g>
	<g id="g866">
		<path id="path861" class="st3" d="M120.1,369.2c0,6.7-5.4,12.1-12.1,12.1s-12.1-5.4-12.1-12.1s5.4-12.1,12.1-12.1
			S120.1,362.5,120.1,369.2z"/>
		<path id="path864" class="st1" d="M95.9,371.6c-5.6-19.5,7.9-32.4,25.7-32.8c18-0.4,29.5,15.6,29.9,30.4
			c0.6,14.8-6,26.9-19.5,41.5c-11,12.2-32.2,21.9-33.8,20.5c-1.8-1.4,16.2-9.3,27.4-22.1c6.9-8.1,14-25.2,13.4-37.8
			c-1-16.7-14.4-26.2-19.7-27.2c-3.4-0.7-6.9,0.1-10.2,1.7c-2.7,1.3-4.4,4-4.5,5.5c-0.2,3.2,3.9,5.1,6.1,5.8
			C118.9,359.5,107.1,380.7,95.9,371.6L95.9,371.6z"/>
	</g>
</g>
<g id="g846_1_" transform="translate(-86.61 -337.35)">
	<path id="path838_1_" class="st0" d="M89.3,345.8v89.1"/>
	<path id="path839_1_" class="st1" d="M89.3,346.5l177.1,0.7"/>
	<path id="path840_1_" class="st1" d="M90.7,368.5l177.1,0.7"/>
	<path id="path842_1_" class="st1" d="M91.4,390.3l177.1,0.7"/>
	<path id="path844_1_" class="st1" d="M89.6,412.5l177.1,0.7"/>
	<path id="path845_1_" class="st1" d="M90.3,434.3l177.1,0.7"/>
</g>
<g id="g869_1_" transform="translate(-81.87 -338.2)">
	<g id="g858_1_" transform="translate(12.215)">
		<path id="path855_1_" class="st2" d="M156.2,358.9c0.1,2.4-1.8,4.4-4.2,4.4c-2.4,0.1-4.4-1.8-4.4-4.2c0-0.1,0-0.1,0-0.2
			c-0.1-2.4,1.8-4.4,4.2-4.4c2.4-0.1,4.4,1.8,4.4,4.2C156.3,358.7,156.3,358.8,156.2,358.9z"/>
		<path id="path857_1_" class="st2" d="M155.2,380.3c0.1,2.4-1.8,4.4-4.2,4.4c-2.4,0.1-4.4-1.8-4.4-4.2c0-0.1,0-0.1,0-0.2
			c-0.1-2.4,1.8-4.4,4.2-4.4c2.4-0.1,4.4,1.8,4.4,4.2C155.2,380.1,155.2,380.2,155.2,380.3z"/>
	</g>
	<g id="g866_1_">
		<path id="path861_1_" class="st3" d="M120.1,370.2c0,6.7-5.4,12.1-12.1,12.1s-12.1-5.4-12.1-12.1s5.4-12.1,12.1-12.1
			S120.1,363.5,120.1,370.2z"/>
		<path id="path864_1_" class="st1" d="M95.9,372.6c-5.6-19.5,7.9-32.4,25.7-32.8c18-0.4,29.5,15.6,29.9,30.4
			c0.6,14.8-6,26.9-19.5,41.5c-11,12.2-32.2,21.9-33.8,20.5c-1.8-1.4,16.2-9.3,27.4-22.1c6.9-8.1,14-25.2,13.4-37.8
			c-1-16.7-14.4-26.2-19.7-27.2c-3.4-0.7-6.9,0.1-10.2,1.7c-2.7,1.3-4.4,4-4.5,5.5c-0.2,3.2,3.9,5.1,6.1,5.8
			C118.9,360.5,107.1,381.7,95.9,372.6L95.9,372.6z"/>
	</g>
</g>
</svg>
